<mxfile host="app.diagrams.net" modified="2024-06-23T15:07:23.404Z" agent="Mozilla/5.0 (Windows NT 10.0; Win64; x64) AppleWebKit/537.36 (KHTML, like Gecko) Chrome/126.0.0.0 Safari/537.36 Edg/126.0.0.0" version="24.6.2" etag="LqrdfGIBmkQmLd66HS6M" type="github">
  <diagram name="Page-1" id="3E_FkO4FgeSKK5v4nOHX">
    <mxGraphModel>
      <root>
        <mxCell id="0" />
        <mxCell id="1" parent="0" />
      </root>
    </mxGraphModel>
  </diagram>
</mxfile>
